# xmcd
#
# Track frame offsets:
#	150
#	24762
#	40628
#	58050
#	77210
#	92475
#	112415
#	128145
#	146185
#	162095
#	182350
#	196366
#	214225
#	231661
#	248165
#	267090
#	286564
#	305689
#
# Disc length: 4306 seconds
#
# Revision: 1
# Processed by: cddbd v1.5.1PL2 Copyright (c) Steve Scherf et al.
# Submitted via: audiograbber 1.83.01
#
DISCID=fd10d012
DTITLE=DISKOTEKA ARLEKINA  - Wypusk 3
DYEAR=2000
DGENRE=Pop
TTITLE0=JIMMY - Goworjit Moskwa
TTITLE1=NOTSCHNOJ PATRULJ - Nam choroscho
TTITLE2=ALLA GORBATSCHÖWA - Ne poweslo
TTITLE3=FORS - Twoj kapris (D.J.Peet Club Mix)
TTITLE4=LETO - Kraski uschedschego leta
TTITLE5=PULS - Dewotschka na rolikach
TTITLE6=PLAY - Gorod tenej
TTITLE7=MATRIKS - Wypusknoj wetscher
TTITLE8=IWANKUPALA and OSON - Polosa (Fast Strip Mix)
TTITLE9=SMILE Feat. AURA PROJECT - Ja sakrywaju glasa (Feat. Aura Project)
TTITLE10=TAJANA - Neswetaja
TTITLE11=ISÜM - Ja snaju, gde tebja iskatj
TTITLE12=DI-WAM - Ja sdesj, ja rjadom
TTITLE13=MULJTI-KEJ - Po baram
TTITLE14=ALLA DIN - pesnja belych ptiz
TTITLE15=DUBROWSKIJ - Poswilj mne bytj
TTITLE16=LIKA - rejs - 103
TTITLE17=BONCHEJ - Ne uchodi
EXTD=
EXTT0=
EXTT1=
EXTT2=
EXTT3=
EXTT4=
EXTT5=
EXTT6=
EXTT7=
EXTT8=
EXTT9=
EXTT10=
EXTT11=
EXTT12=
EXTT13=
EXTT14=
EXTT15=
EXTT16=
EXTT17=
PLAYORDER=
